<svg xmlns="http://www.w3.org/2000/svg" viewBox="0 0 256 257"><defs><linearGradient id="a" x1="-.8%" x2="57.6%" y1="7.7%" y2="78.4%"><stop offset="0%" stop-color="#41D1FF"/><stop offset="100%" stop-color="#BD34FE"/></linearGradient><linearGradient id="b" x1="43.4%" x2="50.4%" y1="2.2%" y2="89.1%"><stop offset="0%" stop-color="#FFEA83"/><stop offset="8.3%" stop-color="#FFDD35"/><stop offset="100%" stop-color="#FFA800"/></linearGradient></defs><path fill="url(#a)" d="M255.2 41.5L133.7 252.9c-2.6 4.5-9.1 4.6-11.8.2L.9 44.7c-3.3-5.3 1.5-12.1 7.4-10.8l122.4 27.3c.8.2 1.7.1 2.5-.2l116-43.7c5.6-2.1 11.3 3.2 9 8.8z"/><path fill="url(#b)" d="M185.5 19.3L94.1 41.2c-1.3.3-2.2 1.4-2.2 2.7l-2.5 42.4c-.1 1.5 1.1 2.8 2.6 2.8l11.2-.2c1.6 0 2.9 1.3 2.8 2.9l-.5 27.8c-.1 1.7 1.3 3.1 3 2.9l11.7-1.3c1.7-.2 3.1 1.1 3 2.8l-3.6 54c-.2 2 2.1 3.3 3.8 1.9l4.5-4.1c1.4-1.3 3.6-1.1 4.8.3l10.4 13.5c1.3 1.6 3.7 1.5 4.9-.2l38.5-54.6c1.2-1.7.2-4-1.9-4.1l-13-.3c-1.7 0-2.8-1.7-2.3-3.3l18.4-56.3c.5-1.6-.6-3.3-2.3-3.4l-12.5-.2c-1.7 0-2.7-1.7-2.3-3.3l9.5-34.8c.4-1.7-.8-3.3-2.6-3.3z"/></svg>
